<?xml version="1.0" standalone="no"?><!DOCTYPE svg PUBLIC "-//W3C//DTD SVG 1.1//EN" "http://www.w3.org/Graphics/SVG/1.1/DTD/svg11.dtd"><svg t="1648796760190" class="icon" viewBox="0 0 1024 1024" version="1.1" xmlns="http://www.w3.org/2000/svg" p-id="6498" xmlns:xlink="http://www.w3.org/1999/xlink" width="200" height="200"><defs><style type="text/css">@font-face { font-family: feedback-iconfont; src: url("//at.alicdn.com/t/font_1031158_u69w8yhxdu.woff2?t=1630033759944") format("woff2"), url("//at.alicdn.com/t/font_1031158_u69w8yhxdu.woff?t=1630033759944") format("woff"), url("//at.alicdn.com/t/font_1031158_u69w8yhxdu.ttf?t=1630033759944") format("truetype"); }
</style></defs><path d="M794.17 147.91c45.16 0.2 81.71 36.76 81.92 81.92v279.98c0 12.53 10.13 22.71 22.67 22.76 12.6 0.05 22.84-10.15 22.84-22.76V229.83c0-70.09-57.34-127.43-127.43-127.43H229.83c-70.09 0-127.43 57.34-127.43 127.43v564.34c0 70.09 57.34 127.43 127.43 127.43H469.7c12.52 0 22.68-10.11 22.76-22.62 0.07-12.62-10.14-22.89-22.76-22.89H229.83c-45.16-0.2-81.71-36.76-81.92-81.92V229.83c0.2-45.16 36.76-81.71 81.92-81.92h564.34m0-45.51" p-id="6499"></path><path d="M260.57 263.37c0-12.29 9.97-22.26 22.26-22.26h458.35c12.29 0 22.26 9.97 22.26 22.26 0 12.29-9.97 22.26-22.26 22.26H282.83c-12.3 0-22.26-9.96-22.26-22.26zM260.57 375.24c0-12.29 9.97-22.26 22.26-22.26h458.35c12.29 0 22.26 9.97 22.26 22.26 0 12.29-9.97 22.26-22.26 22.26H282.83c-12.3 0-22.26-9.97-22.26-22.26zM260.57 487.1c0-12.29 9.97-22.26 22.26-22.26h204.79c12.29 0 22.26 9.97 22.26 22.26 0 12.29-9.97 22.26-22.26 22.26H282.83c-12.3 0-22.26-9.97-22.26-22.26z" p-id="6500"></path><path d="M727.86 528.98c20.8 0 40.33 8.5 54.99 23.93 14.8 15.58 22.95 36.31 22.81 57.74a83.215 83.215 0 0 1-22.77 57.77 75.41 75.41 0 0 1-55.02 23.93c-20.76 0-40.29-8.46-54.99-23.97a83.22 83.22 0 0 1-22.81-57.7c0-21.78 8.11-42.3 22.81-57.74 14.7-15.44 34.19-23.94 54.99-23.94v-0.02z m0-26.12c-56.72-0.03-102.68 48.26-102.68 107.83 0 59.53 45.96 107.79 102.68 107.79 56.75 0 102.72-48.26 102.72-107.83 0-59.54-46.04-107.79-102.72-107.79z m0 235.25h-12.62a6.59 6.59 0 0 0-6.45 6.7c-1.34 21.22-4.3 41.59-2.64 63.24 0.07 0.74 21.75 70.39 21.75 70.39V738.11h-0.04z m0 0" p-id="6501"></path><path d="M727.86 878.47s21.71-69.65 21.75-70.43c1.62-21.64-1.3-41.95-2.64-63.17a6.585 6.585 0 0 0-6.42-6.73H727.9v140.29h-0.03v0.04z m-89.25-120.8l42.47 137.26h-121.6a176.1 176.1 0 0 1 28.66-87.59 171.002 171.002 0 0 1 32.71-36.76c5.64-4.77 11.63-9.07 17.76-12.91z m14.77-36.76c-69.76 28.98-119.03 100.46-119.03 183.96 0 5.46 0.25 10.86 0.64 16.21h180.37l-61.97-200.21v0.04z m163.77 36.76a166.878 166.878 0 0 1 50.41 49.67 175.74 175.74 0 0 1 28.66 87.59H774.67l42.48-137.26z m-14.81-36.76l-61.97 200.14h180.37c0.43-5.39 0.64-10.8 0.63-16.21 0-83.54-49.35-154.95-119.07-183.93h0.04z m0 0" p-id="6502"></path></svg>