<?xml version="1.0" standalone="no"?><!DOCTYPE svg PUBLIC "-//W3C//DTD SVG 1.1//EN" "http://www.w3.org/Graphics/SVG/1.1/DTD/svg11.dtd"><svg t="1648796650405" class="icon" viewBox="0 0 1024 1024" version="1.1" xmlns="http://www.w3.org/2000/svg" p-id="5481" xmlns:xlink="http://www.w3.org/1999/xlink" width="200" height="200"><defs><style type="text/css">@font-face { font-family: feedback-iconfont; src: url("//at.alicdn.com/t/font_1031158_u69w8yhxdu.woff2?t=1630033759944") format("woff2"), url("//at.alicdn.com/t/font_1031158_u69w8yhxdu.woff?t=1630033759944") format("woff"), url("//at.alicdn.com/t/font_1031158_u69w8yhxdu.ttf?t=1630033759944") format("truetype"); }
</style></defs><path d="M516.51 168.32c-107.45 0-194.56 87.11-194.56 194.56s87.11 194.56 194.56 194.56 194.56-87.11 194.56-194.56-87.11-194.56-194.56-194.56z m0 40.96c84.83 0 153.6 68.77 153.6 153.6s-68.77 153.6-153.6 153.6-153.6-68.77-153.6-153.6 68.77-153.6 153.6-153.6z m0 0" p-id="5482"></path><path d="M512 519.31c183.21 0.01 332.72 146.64 336.28 329.81l0.08 6.55H807.4c1.04-162.63-129.57-295.51-292.18-297.28-162.62-1.77-296.08 128.23-298.59 290.84l-0.04 6.43h-40.96c0.03-185.74 150.62-336.31 336.37-336.31v-0.04z m0 0" p-id="5483"></path></svg>