<?xml version="1.0" standalone="no"?><!DOCTYPE svg PUBLIC "-//W3C//DTD SVG 1.1//EN" "http://www.w3.org/Graphics/SVG/1.1/DTD/svg11.dtd"><svg t="1648796722218" class="icon" viewBox="0 0 1024 1024" version="1.1" xmlns="http://www.w3.org/2000/svg" p-id="5638" xmlns:xlink="http://www.w3.org/1999/xlink" width="200" height="200"><defs><style type="text/css">@font-face { font-family: feedback-iconfont; src: url("//at.alicdn.com/t/font_1031158_u69w8yhxdu.woff2?t=1630033759944") format("woff2"), url("//at.alicdn.com/t/font_1031158_u69w8yhxdu.woff?t=1630033759944") format("woff"), url("//at.alicdn.com/t/font_1031158_u69w8yhxdu.ttf?t=1630033759944") format("truetype"); }
</style></defs><path d="M513.27 213.94c-93.19 0-168.74 75.55-168.74 168.73 0 93.19 75.55 168.74 168.74 168.74S682 475.87 682 382.68c0-93.19-75.54-168.74-168.73-168.74z m0 35.53c73.57 0 133.21 59.64 133.21 133.21 0 73.57-59.64 133.21-133.21 133.21-73.57 0-133.21-59.64-133.21-133.21 0-73.57 59.64-133.21 133.21-133.21z m0 0M326.63 261.33v35.52c-52.32 0-94.98 44.16-94.98 98.93 0 53.42 40.6 96.76 91.19 98.82l3.8 0.07v35.52c-72.22 0-130.51-60.32-130.51-134.42 0-72.68 56.02-132.07 126.28-134.38l4.22-0.06z m0 0" p-id="5639"></path><path d="M509.36 518.34c158.89 0.01 288.55 127.17 291.64 286.03l0.07 5.68h-35.52c0.9-141.04-112.37-256.28-253.4-257.82-141.03-1.53-256.78 111.22-258.95 252.25l-0.03 5.58h-35.52c0.02-161.1 130.62-291.68 291.71-291.68v-0.04z m0 0M325.64 494.68v35.52c-105.5 0-191.47 85.08-194.17 191.11l-0.07 5.12H95.87c0-126.1 99.89-228.73 224.26-231.68l5.51-0.07z m0 0" p-id="5640"></path><path d="M701.6 261.4c70.26 2.31 126.28 61.7 126.28 134.38 0 74.1-58.29 134.42-130.51 134.42v-35.52l3.8-0.07c50.59-2.06 91.19-45.4 91.19-98.82 0-54.78-42.66-98.93-94.98-98.93v-35.52l4.22 0.06z m-4.23-0.07" p-id="5641"></path><path d="M703.87 494.75c124.37 2.95 224.26 105.58 224.26 231.68H892.6l-0.07-5.12c-2.7-106.04-88.66-191.11-194.17-191.11v-35.52l5.51 0.07z m-5.51-0.07" p-id="5642"></path></svg>